<svg version="1.2" xmlns="http://www.w3.org/2000/svg" viewBox="0 0 217 58" width="217" height="58">
	<title>New Project</title>
	<style>
		.s0 { fill: #ffffff } 
	</style>
	<g id="Adobe">
		<path class="s0" d="m24.7 0.7h-23.7v56.6z"/>
		<path class="s0" d="m41.3 0.7h23.7v56.6z"/>
		<path class="s0" d="m33 21.6l15.1 35.7h-9.9l-4.5-11.4h-11.1z"/>
		<path fill-rule="evenodd" class="s0" d="m92.1 36.7l-2.6 7.9c-0.1 0.3-0.3 0.4-0.6 0.4h-4.8c-0.2 0-0.3-0.1-0.3-0.5l9.9-28.1c0.2-0.5 0.3-1 0.4-2.6 0-0.2 0.1-0.3 0.3-0.3h6.7c0.2 0 0.3 0 0.3 0.3l11.1 30.8c0 0.3 0 0.4-0.3 0.4h-5.4q-0.3 0-0.4-0.3l-2.8-8zm9.9-5.2c-1-3.2-3.3-9.9-4.2-13.2h-0.1c-0.7 3.2-2.6 8.8-4.1 13.2z"/>
		<path fill-rule="evenodd" class="s0" d="m114.5 33.4c0-7 5.2-12.5 13.6-12.5 0.7 0 1.2 0 2.1 0.1v-9.8c0-0.3 0.1-0.4 0.3-0.4h5.2c0.2 0 0.2 0.1 0.2 0.3v29c0 1 0.1 2.2 0.2 3.1 0 0.2 0 0.3-0.3 0.4-3.1 1.3-6.2 1.9-9 1.9-7 0-12.3-4-12.3-12.1zm15.7-7.4q-1-0.3-2.3-0.3c-4.3 0-7.5 2.8-7.5 7.4 0 5.2 3.1 7.4 7 7.4 0.9 0 1.9-0.1 2.8-0.4z"/>
		<path fill-rule="evenodd" class="s0" d="m164.2 33c0 7.5-4.7 12.5-11.5 12.5-8 0-11.6-6.2-11.6-12.3 0-6.8 4.5-12.3 11.7-12.3 7.4 0 11.4 5.6 11.4 12.1zm-17.2 0.1c0 4.4 2.1 7.5 5.8 7.5 3 0 5.5-2.5 5.5-7.4 0-4-1.7-7.5-5.8-7.5-3.2 0-5.5 2.8-5.5 7.4z"/>
		<path fill-rule="evenodd" class="s0" d="m174.6 10.8c0.4 0 0.5 0.1 0.5 0.4v10.3c1.3-0.4 2.8-0.6 4.4-0.6 6.9 0 11.3 4.9 11.3 11.3 0 8.9-6.9 13.3-14 13.3q-3.7 0-7.2-1.1c-0.2 0-0.3-0.3-0.3-0.4v-32.8c0-0.3 0.1-0.4 0.3-0.4zm3.8 15c-1.6 0-2.5 0.2-3.3 0.5v14c0.7 0.2 1.4 0.3 2.2 0.3 3.9 0 7.6-2.5 7.6-7.8 0-4.6-2.7-7-6.5-7z"/>
		<path fill-rule="evenodd" class="s0" d="m200.6 34.5c0.1 3.3 2.3 6 7.2 6q3.2 0 6-1.1c0.1-0.1 0.2-0.1 0.2 0.2v4q0 0.4-0.2 0.5c-1.8 0.8-4 1.4-7.2 1.4-8.8 0-11.9-6.2-11.9-12.1 0-6.6 4.1-12.5 11.3-12.5 7.1 0 9.8 5.5 9.8 10.1 0 1.3 0 2.4-0.2 3 0 0.2-0.1 0.2-0.4 0.3-0.6 0.1-2.5 0.2-4.9 0.2zm7.2-4.1c1.8 0 2.4 0 2.6-0.1 0-0.1 0-0.3 0-0.4 0-1.4-0.9-4.4-4.6-4.4-3.3 0-4.8 2.5-5.2 4.9z"/>
	</g>
</svg>