<svg version="1.2" xmlns="http://www.w3.org/2000/svg" viewBox="0 0 219 56" width="219" height="56">
	<title>New Project</title>
	<style>
		.s0 { fill: #ffffff } 
	</style>
	<g id="GitHub">
		<path class="s0" d="m29 0.1c-15.6 0-28.2 12.6-28.2 28.2 0 12.4 8.1 23 19.3 26.7 1.4 0.3 1.9-0.6 1.9-1.3 0-0.7 0-2.9 0-5.3-7.1 1.3-8.9-1.7-9.5-3.3-0.3-0.8-1.7-3.3-2.9-4-0.9-0.5-2.4-1.8 0-1.8 2.2-0.1 3.8 2 4.3 2.9 2.6 4.2 6.6 3 8.3 2.3 0.2-1.8 0.9-3.1 1.7-3.8-6.2-0.7-12.8-3.1-12.8-13.9 0-3.1 1.1-5.6 2.9-7.6-0.3-0.7-1.3-3.6 0.3-7.5 0 0 2.4-0.7 7.7 2.9 2.3-0.6 4.7-0.9 7.1-0.9 2.4 0 4.8 0.3 7 0.9 5.4-3.6 7.8-2.9 7.8-2.9 1.5 3.9 0.6 6.8 0.3 7.5 1.8 2 2.9 4.5 2.9 7.6 0 10.8-6.6 13.2-12.9 13.9 1 0.9 1.9 2.6 1.9 5.2 0 3.8 0 6.8 0 7.8 0 0.7 0.5 1.6 1.9 1.3 5.6-1.9 10.5-5.5 13.9-10.3 3.5-4.8 5.3-10.5 5.3-16.4 0-15.6-12.6-28.2-28.2-28.2z"/>
		<path fill-rule="evenodd" class="s0" d="m132.3 41.9q0 0 0 0h-0.1c0 0 0 0 0.1 0zm0 0c-0.3 0-1.1 0.2-1.9 0.2-2.6 0-3.5-1.2-3.5-2.7v-10.3h5.2c0.3 0 0.6-0.3 0.6-0.7v-5.6c0-0.3-0.3-0.5-0.6-0.5h-5.2v-7c0-0.2-0.1-0.4-0.4-0.4h-7.1c-0.3 0-0.5 0.2-0.5 0.4v7.2c0 0-3.6 0.9-3.8 0.9-0.3 0.1-0.5 0.3-0.5 0.6v4.4c0 0.4 0.3 0.7 0.6 0.7h3.7v10.7c0 8.1 5.5 8.9 9.4 8.9 1.7 0 3.8-0.6 4.1-0.7 0.2-0.1 0.3-0.3 0.3-0.6v-4.9q0-0.2-0.1-0.4-0.1-0.1-0.3-0.2zm76.1-20.5v0.1c-3.9 0-6.6 1.7-6.6 1.7v-12.4c0-0.3-0.3-0.6-0.6-0.6h-7c-0.3 0-0.5 0.3-0.5 0.6l-0.1 36.5c0 0.3 0.3 0.6 0.6 0.6h4.9c0.2 0 0.4-0.1 0.5-0.3 0.1-0.2 0.3-1.7 0.3-1.7 0 0 2.9 2.8 8.2 2.8 6.4 0 10.1-3.3 10.1-14.5 0-11.3-5.8-12.8-9.8-12.8zm-2.7 20.7c-2.4-0.1-4-1.2-4-1.2v-11.6c0 0 1.6-1 3.6-1.1 2.5-0.3 4.9 0.5 4.9 6.5 0 6.3-1.1 7.5-4.5 7.4zm-16.2-19.8h-6.9c-0.4 0-0.6 0.2-0.6 0.6v17.9c0 0-1.8 1.3-4.2 1.3-2.5 0-3.2-1.1-3.2-3.6v-15.6c0-0.3-0.3-0.6-0.6-0.6h-7c-0.3 0-0.6 0.3-0.6 0.6v16.8c0 7.2 4.1 9 9.6 9 4.6 0 8.3-2.5 8.3-2.5 0 0 0.2 1.3 0.3 1.5 0 0.1 0.3 0.3 0.5 0.3h4.4c0.4 0 0.6-0.3 0.6-0.6v-24.6c0-0.3-0.2-0.5-0.6-0.5zm-77.9 0h-7c-0.3 0-0.6 0.2-0.6 0.6v24.1c0 0.7 0.4 0.9 1 0.9h6.3c0.7 0 0.8-0.3 0.8-0.9v-24.2c0-0.3-0.2-0.5-0.5-0.5zm-3.5-11.2c-2.5 0-4.5 2-4.5 4.6 0 2.5 2 4.5 4.5 4.5 2.5 0 4.5-2 4.5-4.5 0-2.6-2-4.6-4.5-4.6zm54.2-0.8h-6.9c-0.3 0-0.6 0.3-0.6 0.6v13.4h-10.8v-13.4c0-0.3-0.3-0.6-0.6-0.6h-7c-0.3 0-0.6 0.3-0.6 0.6v36.5c0 0.3 0.3 0.6 0.6 0.6h7c0.3 0 0.6-0.3 0.6-0.6v-15.6h10.8v15.6c0 0.3 0.2 0.6 0.5 0.6h7c0.3 0 0.6-0.3 0.6-0.6v-36.5c0-0.3-0.3-0.6-0.6-0.6zm-62.6 15.6h-12.3c-0.4 0-0.7 0.3-0.7 0.6v6c0 0.3 0.3 0.6 0.7 0.6h4.8v7.6c0 0-1.1 0.3-4.1 0.3-3.6 0-8.5-1.3-8.5-12.1 0-10.9 5.2-12.3 10-12.3 4.2 0 6 0.7 7.2 1.1 0.3 0.1 0.6-0.3 0.6-0.6l1.4-5.8c0-0.2-0.1-0.3-0.2-0.5-0.5-0.3-3.4-1.9-10.5-1.9-8.3 0-16.8 3.5-16.8 20.4 0 16.9 9.7 19.4 17.9 19.4 6.8 0 10.9-2.9 10.9-2.9 0.1-0.1 0.2-0.3 0.2-0.4v-18.9c0-0.3-0.3-0.6-0.6-0.6z"/>
	</g>
</svg>