<svg version="1.2" xmlns="http://www.w3.org/2000/svg" viewBox="0 0 182 61" width="158" height="53">
	<title>New Project</title>
	<style>
		.s0 { fill: #ffffff } 
	</style>
	<g id="Google">
		<path fill-rule="evenodd" class="s0" d="m78 31.7c0 8.6-6.7 14.9-15 14.9-8.3 0-15-6.3-15-14.9 0-8.7 6.7-15 15-15 8.3 0 15 6.3 15 15zm-6.6 0c0-5.4-3.9-9.1-8.4-9.1-4.5 0-8.4 3.7-8.4 9.1 0 5.3 3.9 9 8.4 9 4.5 0 8.4-3.7 8.4-9z"/>
		<path fill-rule="evenodd" class="s0" d="m110.4 31.7c0 8.6-6.8 14.9-15 14.9-8.3 0-15-6.3-15-14.9 0-8.7 6.7-15 15-15 8.2 0 15 6.3 15 15zm-6.6 0c0-5.4-3.9-9.1-8.4-9.1-4.6 0-8.5 3.7-8.5 9.1 0 5.3 3.9 9 8.5 9 4.5 0 8.4-3.7 8.4-9z"/>
		<path fill-rule="evenodd" class="s0" d="m141.4 44.5c0 11-6.5 15.5-14.2 15.5-7.3 0-11.6-4.8-13.3-8.8l5.7-2.4c1.1 2.5 3.6 5.3 7.6 5.3 4.9 0 8-3 8-8.7v-2.2h-0.3c-1.4 1.8-4.3 3.4-7.9 3.4-7.4 0-14.3-6.5-14.3-14.9 0-8.4 6.9-15 14.3-15 3.6 0 6.4 1.6 7.9 3.4h0.3v-2.5h6.2zm-5.8-12.7c0-5.3-3.5-9.1-8-9.1-4.5 0-8.3 3.8-8.3 9.1 0 5.2 3.8 9 8.3 9 4.5 0 8-3.8 8-9z"/>
		<path class="s0" d="m151.7 1.9v43.8h-6.4v-43.8z"/>
		<path fill-rule="evenodd" class="s0" d="m176.6 36.6l5.1 3.4c-1.6 2.4-5.6 6.6-12.4 6.6-8.5 0-14.9-6.6-14.9-14.9 0-8.9 6.4-15 14.1-15 7.8 0 11.6 6.2 12.8 9.5l0.7 1.7-20 8.3c1.5 3 3.9 4.5 7.3 4.5 3.3 0 5.6-1.6 7.3-4.1zm-15.7-5.4l13.4-5.5c-0.7-1.9-2.9-3.2-5.5-3.2-3.4 0-8 2.9-7.9 8.7z"/>
		<path class="s0" d="m23.8 27.8v-6.4h21.3c0.3 1.1 0.4 2.4 0.4 3.9 0 4.7-1.3 10.6-5.5 14.8-4.1 4.2-9.3 6.5-16.2 6.5-12.8 0-23.6-10.4-23.6-23.2 0-12.8 10.8-23.2 23.6-23.2 7.1 0 12.1 2.8 15.9 6.4l-4.5 4.4c-2.7-2.5-6.4-4.5-11.4-4.5-9.4 0-16.7 7.5-16.7 16.9 0 9.3 7.3 16.9 16.7 16.9 6 0 9.5-2.5 11.7-4.7 1.8-1.8 3-4.3 3.4-7.8z"/>
	</g>
</svg>