<svg version="1.2" xmlns="http://www.w3.org/2000/svg" viewBox="0 0 291 63" width="291" height="63">
	<title>New Project</title>
	<style>
		.s0 { fill: #ffffff } 
	</style>
	<g id="Microsoft">
		<path fill-rule="evenodd" class="s0" d="m283.3 28.2v12.5q0 2.4 0.8 3.4 0.9 0.9 2.7 0.9 0.5 0 1.3-0.2 0.7-0.2 1.3-0.5l0.2-0.2v5.1l-0.1 0.1q-0.5 0.3-1.9 0.6-1.4 0.3-2.7 0.3c-5.2 0-7.9-2.8-7.9-8.4v-13.6h-9.3v21.4h-6.3v-21.4h-4.4v-5.1h4.4v-3.7q0-2.8 1.2-4.9c0.8-1.5 2-2.6 3.4-3.4q2.2-1.2 5-1.2 2.2 0 3.5 0.5h0.1v5.3l-0.3-0.1q-1.4-0.6-2.7-0.6-1.9 0-2.9 1.2-1 1.2-1 3.5v3.4h9.3v-6l0.2-0.1 5.9-1.8h0.2v7.9h6.3v5.1zm-30.4-2.1c2.3 2.4 3.5 5.8 3.5 10 0 4.2-1.3 7.7-3.8 10.3-2.4 2.5-5.8 3.8-10.1 3.8-4 0-7.3-1.2-9.7-3.7-2.5-2.4-3.7-5.7-3.7-9.9 0-4.3 1.3-7.8 3.8-10.4 2.4-2.5 5.9-3.8 10.3-3.8 4.1 0 7.3 1.3 9.7 3.7zm-4.8 16.7c1.2-1.4 1.8-3.7 1.8-6.5q0-4.3-1.9-6.5-1.9-2.2-5.2-2.2-3.4 0-5.3 2.3-1.9 2.3-1.9 6.5c0 2.7 0.6 4.9 1.9 6.4q1.9 2.2 5.4 2.2 3.5 0 5.2-2.2zm-26-20q1.7 0.3 2.8 0.7l0.1 0.1v5.8l-0.3-0.2q-1.1-0.8-2.8-1.3-1.6-0.5-3.2-0.5-1.7 0-2.6 0.7-1 0.8-1 1.9 0 1.3 0.8 2.1 0.7 0.7 3.7 1.9c2.5 1 4.2 2.1 5.3 3.4q1.5 1.8 1.5 4.5 0 3.8-2.9 6c-1.9 1.5-4.5 2.3-7.7 2.3q-1.6 0-3.6-0.4-2-0.4-3.3-1l-0.1-0.1v-6.1l0.3 0.2q1.6 1.2 3.5 1.8 1.9 0.7 3.4 0.7c2.8 0 4.1-0.9 4.1-2.7q0-0.9-0.4-1.5-0.4-0.6-1.4-1.1-1-0.6-3.2-1.5-2.5-1.1-3.8-2.2-1.3-1-1.9-2.4-0.6-1.5-0.6-3.3c0-2.4 1-4.4 2.8-5.9q2.9-2.3 7.4-2.3 1.3 0 3.1 0.4zm-19.8 3.3c2.3 2.4 3.5 5.8 3.5 10 0 4.2-1.2 7.7-3.7 10.3-2.5 2.5-5.9 3.8-10.1 3.8-4.1 0-7.4-1.2-9.8-3.7-2.4-2.4-3.6-5.7-3.6-9.9 0-4.3 1.2-7.8 3.7-10.4 2.5-2.5 6-3.8 10.3-3.8 4.1 0 7.4 1.3 9.7 3.7zm-4.7 16.7c1.2-1.4 1.8-3.7 1.8-6.5q0-4.3-1.9-6.5-1.9-2.2-5.2-2.2-3.4 0-5.3 2.3-2 2.3-2 6.5c0 2.7 0.7 4.9 2 6.4 1.2 1.5 3.1 2.2 5.3 2.2q3.5 0 5.3-2.2zm-28.5-15.1c0.6-1.5 1.3-2.7 2.4-3.6q1.8-1.5 4.1-1.5 1.6 0 2.5 0.4h0.1v6.3l-0.3-0.2q-0.4-0.3-1.4-0.6-1.1-0.2-1.9-0.2-2.5 0-4 2.1-1.6 2.1-1.6 5.6v13.6h-6.2v-26.5h6.2v4.6zm-14-4.9q1.8 0.4 2.9 1h0.1v6l-0.3-0.1q-2.8-2.1-5.9-2.1c-2.4 0-4.4 0.8-5.8 2.4-1.5 1.6-2.3 3.8-2.3 6.5 0 2.6 0.7 4.8 2.2 6.3 1.4 1.5 3.4 2.2 5.8 2.2q1.3 0 3-0.5 1.6-0.6 3-1.6l0.3-0.2v5.7h-0.1c-2 1.2-4.5 1.8-7.5 1.8q-3.8 0-6.8-1.6c-2-1.1-3.6-2.7-4.7-4.8-1.1-2-1.7-4.3-1.7-6.8 0-2.8 0.6-5.4 1.8-7.6 1.1-2.2 2.8-3.9 5-5.1 2.1-1.3 4.7-1.9 7.5-1.9q1.7 0 3.5 0.4zm-22 0.3v26.5h-6.3v-26.5zm-0.3-10.2q1.1 1 1.1 2.5-0.1 1.6-1.2 2.6-1.1 1-2.6 1-1.6 0-2.7-1-1.1-1-1.1-2.6 0-1.5 1.1-2.6 1.1-1 2.7-1 1.6 0 2.7 1.1zm-18.5 8.2l-11.3 28.5h-4.5l-11.5-28.5h-0.2v28.5h-6v-37h9.2l10.9 27.5 11.2-27.5h8.8v37h-6.4v-28.5z"/>
		<path fill-rule="evenodd" class="s0" d="m29.9 0.2v29.4h-29.4v-29.4z"/>
		<path fill-rule="evenodd" class="s0" d="m62.2 0.2v29.4h-29.3v-29.4z"/>
		<path fill-rule="evenodd" class="s0" d="m29.9 32.6v29.4h-29.4v-29.4z"/>
		<path fill-rule="evenodd" class="s0" d="m62.2 32.6v29.4h-29.3v-29.4z"/>
	</g>
</svg>