<svg version="1.2" xmlns="http://www.w3.org/2000/svg" viewBox="0 0 228 69" width="228" height="69">
	<title>New Project</title>
	<style>
		.s0 { fill: #ffffff } 
	</style>
	<g id="Spotify">
		<path fill-rule="evenodd" class="s0" d="m34.7 0.2c18.7 0 33.9 15.2 33.9 33.9 0 18.8-15.2 34-33.9 34-18.8 0-34-15.2-34-34 0-18.7 15.2-33.9 34-33.9zm14.9 46c-9-5.4-20.1-6.7-33-3.8-1.2 0.3-1.9 1.4-1.6 2.6 0.2 1.1 1.4 1.8 2.5 1.6 11.8-2.7 21.9-1.6 29.8 3.2 1 0.7 2.3 0.3 3-0.7 0.6-1 0.2-2.3-0.7-2.9zm3.9-9.9c-10.4-6.5-25.8-8.3-38.1-4.6-1.4 0.5-2.2 1.9-1.8 3.3 0.4 1.4 1.9 2.2 3.3 1.8 10.8-3.3 24.7-1.6 33.9 4 1.2 0.7 2.8 0.3 3.6-0.9 0.8-1.2 0.4-2.9-0.9-3.6zm1.3-6c1.5 0.9 3.4 0.4 4.3-1.1 0.9-1.6 0.4-3.5-1.1-4.4-12.6-7.5-32.5-8.2-44.5-4.5-1.7 0.5-2.7 2.2-2.2 3.9 0.6 1.7 2.3 2.6 4 2.1 10.5-3.1 28.5-2.5 39.5 4zm38.3 1.2c7.2 1.8 10.1 4.5 10.1 9.3 0 5.8-4.4 9.5-11.3 9.5-4.8 0-9.3-1.7-12.9-4.9-0.1-0.2-0.2-0.4 0-0.6l3.2-3.8q0.1-0.1 0.3-0.1 0.1 0 0.2 0.1c3.2 2.7 6 3.8 9.4 3.8 3.1 0 5-1.3 5-3.5 0-1.9-1-3-6.6-4.3-6.6-1.6-10.4-3.6-10.4-9.5 0-5.4 4.4-9.2 10.8-9.2 4.3 0 7.9 1.3 11.2 3.9 0.2 0.1 0.2 0.4 0.1 0.5l-2.9 4.1q-0.1 0.1-0.2 0.1-0.2 0.1-0.3 0c-2.8-2.1-5.4-3.1-8-3.1-2.8 0-4.6 1.3-4.6 3.3 0 2 1.1 3 6.9 4.4zm25.5-5.8c5.5 0 11.1 4.3 11.1 12.3 0 8.1-5.6 12.4-11.1 12.4-3 0-5.4-1.1-7.4-3.4v9.4c0 0.3-0.2 0.4-0.4 0.4h-5.2c-0.2 0-0.4-0.1-0.4-0.4v-29.8c0-0.2 0.2-0.4 0.4-0.4h5.2c0.2 0 0.4 0.2 0.4 0.4v2.7c2-2.4 4.4-3.6 7.4-3.6zm-1.2 5.4c-3.6 0-6.3 3-6.3 6.9 0 4 2.7 7 6.3 7 3.6 0 6.1-2.8 6.1-7 0-4-2.5-6.9-6.1-6.9zm26.5-5.4c7.1 0 12.6 5.4 12.6 12.3 0 7-5.6 12.4-12.7 12.4-7 0-12.5-5.4-12.5-12.3 0-6.9 5.5-12.4 12.6-12.4zm6.6 12.4c0-4-2.9-7-6.7-7-3.8 0-6.5 2.9-6.5 6.9 0 4 2.8 7.1 6.6 7.1 3.8 0 6.6-2.9 6.6-7zm21.1-11.9c0.2 0 0.4 0.2 0.4 0.4v4.5c0 0.2-0.2 0.4-0.4 0.4h-5.8v10.8c0 1.8 0.8 2.5 2.5 2.5 1.1 0 2-0.2 3-0.7q0.2-0.1 0.4 0 0.2 0.1 0.2 0.3v4.3q0 0.2-0.2 0.3c-1.5 0.9-3 1.3-4.9 1.3-4.7 0-7-2.4-7-7.1v-11.7h-2.5c-0.2 0-0.4-0.2-0.4-0.4v-4.5c0-0.2 0.2-0.4 0.4-0.4h2.5v-5.9c0-0.2 0.2-0.4 0.4-0.4h5.2c0.2 0 0.4 0.2 0.4 0.4v5.9h5.8zm20.1 0h9c0.2 0 0.3 0.1 0.4 0.3l6.1 16 5.6-16c0-0.2 0.2-0.3 0.4-0.3h5.4q0.2 0 0.3 0.2 0.1 0.2 0.1 0.3l-9.1 23.6c-1.9 4.8-4.1 6.7-7.9 6.7-2.1 0-3.8-0.5-5.6-1.5-0.2-0.1-0.3-0.3-0.2-0.5l1.8-3.9q0-0.1 0.2-0.2 0.1 0 0.3 0 1.5 0.9 2.9 0.9c1.1 0 2-0.4 2.8-2.3l-7.5-18h-4.9v18c0 0.2-0.2 0.4-0.4 0.4h-5.2c-0.2 0-0.4-0.2-0.4-0.4v-18h-2.5c-0.2 0-0.4-0.2-0.4-0.4v-4.5c0-0.2 0.2-0.4 0.4-0.4h2.5v-1.1c0-5.2 2.6-7.9 7.4-7.9 2 0 3.3 0.3 4.4 0.6 0.1 0 0.2 0.2 0.2 0.4v4.4q0 0.2-0.1 0.3-0.2 0.1-0.4 0.1c-0.9-0.4-1.8-0.6-2.9-0.6-1.9 0-2.7 1-2.7 3.1zm-11.6 0c0.2 0 0.3 0.1 0.3 0.4v22.9c0 0.2-0.1 0.4-0.3 0.4h-5.3c-0.2 0-0.4-0.2-0.4-0.4v-22.9c0-0.3 0.2-0.4 0.4-0.4h5.3zm1.1-6.7c0 2.1-1.7 3.8-3.7 3.8-2.1 0-3.8-1.7-3.8-3.8 0-2.1 1.7-3.8 3.8-3.8 2 0 3.7 1.7 3.7 3.8zm42.3 14c-2.1 0-3.7-1.6-3.7-3.7 0-2 1.6-3.7 3.7-3.7 2.1 0 3.7 1.7 3.7 3.7 0 2-1.7 3.7-3.7 3.7zm0-7c-1.9 0-3.3 1.5-3.3 3.3 0 1.9 1.4 3.4 3.3 3.4 1.9 0 3.3-1.5 3.3-3.4 0-1.8-1.4-3.3-3.3-3.3zm0.8 3.7l1 1.5h-0.8l-1-1.4h-0.8v1.4h-0.7v-3.9h1.7c0.9 0 1.5 0.4 1.5 1.2 0 0.7-0.4 1-0.9 1.2zm-0.6-1.7h-1v1.2h1c0.5 0 0.7-0.3 0.7-0.6 0-0.4-0.2-0.6-0.7-0.6z"/>
	</g>
</svg>