<svg version="1.2" xmlns="http://www.w3.org/2000/svg" viewBox="0 0 129 54" width="129" height="54">
	<title>New Project</title>
	<style>
		.s0 { fill: #ffffff } 
	</style>
	<g id="Stripe">
		<path fill-rule="evenodd" class="s0" d="m128.3 30.9h-17.4c0.4 4.2 3.4 5.4 6.9 5.4 3.5 0 6.3-0.7 8.7-1.9v7.1c-2.4 1.4-5.6 2.3-9.9 2.3-8.7 0-14.7-5.4-14.7-16.1 0-9.1 5.1-16.3 13.6-16.3 8.4 0 12.9 7.2 12.9 16.4 0 0.8-0.1 2.7-0.1 3.1zm-8.4-6.5c0-4.1-2.3-5.7-4.4-5.7-2.3 0-4.7 1.6-4.7 5.7z"/>
		<path fill-rule="evenodd" class="s0" d="m100.3 27.4c0 11.3-5.8 16.4-12.2 16.4-3.1 0-5-1.3-6.3-2.2v10.1l-9 1.8v-41.5h7.9l0.4 2.2c1.3-1.1 3.5-2.8 7-2.8 6.3 0 12.1 5.7 12.2 16zm-8.8 0.2c0-4.6-2.3-8.3-5.5-8.3-2 0-3.3 0.8-4.2 1.8v13.2c0.8 0.9 2.1 1.7 4.2 1.7 3.3 0 5.5-3.6 5.5-8.4z"/>
		<path class="s0" d="m60.6 9.3l8.9-1.9v-7.2l-8.9 1.9z"/>
		<path class="s0" d="m69.5 12h-8.9v31.2h8.9z"/>
		<path class="s0" d="m51 14.7l-0.6-2.7h-7.7v31.2h8.9v-21.1c2.1-2.8 5.7-2.3 6.8-1.9v-8.2c-1.1-0.4-5.3-1.2-7.4 2.7z"/>
		<path class="s0" d="m33.2 4.3l-8.7 1.9v28.5c0 5.3 3.9 9.2 9.2 9.2 2.9 0 5-0.6 6.2-1.2v-7.3c-1.1 0.5-6.7 2.1-6.7-3.1v-12.7h6.7v-7.6h-6.7z"/>
		<path class="s0" d="m9.1 21.1c0-1.4 1.1-1.9 3-1.9 2.7 0 6.2 0.8 8.9 2.2v-8.3c-3-1.2-5.9-1.7-8.9-1.7-7.2 0-12 3.8-12 10.1 0 9.9 13.5 8.3 13.5 12.5 0 1.7-1.4 2.2-3.4 2.2-2.9 0-6.7-1.2-9.7-2.9v8.5c3.3 1.5 6.6 2.1 9.7 2.1 7.4 0 12.5-3.7 12.5-10.1 0-10.6-13.6-8.7-13.6-12.7z"/>
	</g>
</svg>